<?xml version="1.0" encoding="UTF-8"?>
<svg xmlns="http://www.w3.org/2000/svg" xmlns:xlink="http://www.w3.org/1999/xlink" viewBox="0 0 879.1 640.3">
  <defs>
    <style>
      .cls-1 {
        isolation: isolate;
      }

      .cls-2 {
        fill: none;
        stroke: #fff;
        stroke-miterlimit: 10;
        stroke-width: 4px;
      }

      .cls-3 {
        fill: #45ff00;
      }

      .cls-4 {
        mix-blend-mode: darken;
      }
    </style>
  </defs>
  <g class="cls-1">
    <g id="Livello_1" data-name="Livello 1">
      <rect id="sfondo" class="cls-3" x="119.4" y="-119.4" width="640.3" height="879.1" transform="translate(119.4 759.7) rotate(-90)"/>
      <polygon id="stella" class="cls-2" points="439.55 150.14 449.71 256.01 492.09 158.46 469.03 262.29 539.48 182.61 485.47 274.23 577.1 220.22 497.41 290.67 601.24 267.61 503.69 309.99 609.57 320.15 503.69 330.31 601.24 372.69 497.41 349.63 577.1 420.08 485.47 366.07 539.48 457.69 469.03 378.01 492.09 481.84 449.71 384.29 439.55 490.16 429.39 384.29 387.01 481.84 410.07 378.01 339.62 457.69 393.63 366.07 302.01 420.08 381.69 349.63 277.86 372.69 375.41 330.31 269.54 320.15 375.41 309.99 277.86 267.61 381.69 290.67 302.01 220.22 393.63 274.23 339.62 182.61 410.07 262.29 387.01 158.46 429.39 256.01 439.55 150.14"/>
      <image id="bocca" class="cls-4" width="1022" height="1094" transform="translate(233.37 99.44) scale(.4)" xlink:href="../../Downloads/e519ec972d78a29184b687f0c9afe47e.webp"/>
      <g id="parola">
        <path id="L" d="M367.3,349.6v29.33h-87.83v-115.34h6.13v86.01h81.7Z"/>
        <path id="S" d="M408.98,312.32c-6.24-4.31-9.36-10.71-9.36-19.22,0-9.39,3.45-16.99,10.36-22.79,6.9-5.8,16.05-8.92,27.43-9.36v-17.23h6.13v17.23c7.29.55,13.89,2.49,19.8,5.8,5.91,3.31,10.58,7.82,14,13.51,3.42,5.69,5.14,12.13,5.14,19.31h-6.13c0-6.19-1.44-11.65-4.31-16.41-2.87-4.75-6.79-8.53-11.77-11.35-4.97-2.82-10.55-4.45-16.74-4.89v51.04c9.06,1.88,16.07,3.67,21.04,5.39,4.97,1.71,9.2,4.56,12.68,8.53,3.48,3.98,5.22,9.56,5.22,16.74s-1.8,12.68-5.39,17.48c-3.59,4.81-8.31,8.45-14.17,10.94-5.86,2.49-12.32,3.89-19.39,4.23v15.58h-6.13v-15.58c-8.51-.44-15.97-2.43-22.37-5.97-6.41-3.53-11.3-8.31-14.67-14.33-3.37-6.02-5.05-12.9-5.05-20.63h6.13c-.11,10.17,3.04,18.39,9.45,24.69,6.41,6.3,15.25,9.78,26.51,10.44v-52.53c-12.71-2.76-22.18-6.3-28.42-10.61ZM414.94,273.95c-6.13,4.37-9.2,10.63-9.2,18.81,0,4.86,1.3,8.81,3.89,11.85,2.59,3.04,6.1,5.41,10.52,7.12,4.42,1.71,10.16,3.34,17.23,4.89v-49.88c-8.84.44-16.32,2.85-22.45,7.21ZM443.53,375.45c9.5-.44,17.34-3.01,23.53-7.71,6.19-4.69,9.28-11.02,9.28-18.97,0-5.63-1.35-10.03-4.06-13.17-2.71-3.15-6.19-5.44-10.44-6.88-4.25-1.43-10.36-2.98-18.31-4.64v51.37Z"/>
        <path id="D" d="M520.75,378.93v-115.34h42.92c8.39,0,16.16,2.1,23.28,6.3,7.12,4.2,12.79,9.86,16.99,16.99,4.2,7.13,6.3,14.89,6.3,23.28v22.21c0,8.4-2.1,16.16-6.3,23.28-4.2,7.13-9.86,12.79-16.99,16.99-7.13,4.2-14.89,6.3-23.28,6.3h-42.92Z"/>
      </g>
    </g>
  </g>
</svg>